<?xml version="1.0" standalone="no"?>
<!DOCTYPE svg PUBLIC "-//W3C//DTD SVG 20010904//EN"
 "http://www.w3.org/TR/2001/REC-SVG-20010904/DTD/svg10.dtd">
<svg version="1.0" xmlns="http://www.w3.org/2000/svg"
 width="1563.000000pt" height="625.000000pt" viewBox="0 0 1563.000000 625.000000"
 preserveAspectRatio="xMidYMid meet">

<g transform="translate(0.000000,625.000000) scale(0.100000,-0.100000)"
fill="#000000" stroke="none">
<path d="M2520 5275 l-135 -42 2 -59 c4 -80 39 -242 74 -337 55 -153 168 -335
264 -427 l36 -35 227 0 227 0 6 -255 c5 -250 6 -257 34 -330 24 -64 29 -90 29
-175 0 -90 -2 -107 -29 -165 -29 -65 -29 -66 -33 -287 -2 -158 -6 -224 -15
-231 -7 -6 -79 -20 -162 -32 -82 -12 -152 -23 -154 -25 -7 -7 231 -275 244
-275 24 0 306 283 380 382 85 112 164 267 195 379 65 239 33 519 -80 710 -79
133 -145 205 -395 425 -260 229 -360 343 -445 510 -39 77 -82 200 -96 277 -4
26 -11 37 -23 36 -9 -1 -77 -20 -151 -44z"/>
<path d="M1940 4534 c-371 -350 -523 -665 -507 -1049 6 -143 25 -219 82 -340
70 -151 140 -236 475 -580 163 -168 270 -299 345 -424 42 -70 125 -248 125
-268 0 -7 3 -13 8 -13 4 -1 73 18 154 42 115 33 148 47 148 60 0 36 -85 260
-148 387 -64 132 -166 294 -252 403 -39 50 -50 57 -80 57 -33 1 -235 -21 -321
-35 -68 -10 -69 -5 -69 274 0 242 -1 249 -27 327 -25 72 -27 94 -27 225 -1
133 2 152 27 223 26 75 27 84 27 285 0 160 3 212 14 227 12 16 31 19 155 23
77 3 141 7 141 11 -1 3 -47 55 -104 115 l-104 110 -62 -60z"/>
<path d="M2818 4313 l-128 -4 0 -225 c0 -136 -4 -223 -9 -219 -5 3 -69 94
-142 203 -72 108 -139 205 -147 215 -17 19 -62 21 -285 10 l-137 -6 0 -720 0
-719 78 7 c42 4 156 17 252 29 l175 22 5 232 5 233 118 -198 c65 -109 126
-209 136 -222 20 -26 21 -26 309 16 l112 17 0 668 0 668 -107 -2 c-60 -1 -165
-4 -235 -5z m-724 -196 c15 -37 16 -108 14 -597 l-3 -555 -22 48 c-23 49 -23
49 -23 603 0 336 4 553 9 549 5 -3 17 -24 25 -48z m136 7 c20 -46 20 -61 18
-603 l-3 -556 -22 42 -23 42 0 561 c0 308 2 560 5 560 2 0 13 -21 25 -46z
m138 1 c22 -45 22 -49 22 -600 0 -305 -3 -555 -7 -555 -5 0 -18 24 -31 53 -22
52 -22 53 -22 600 0 301 4 547 8 547 4 0 18 -20 30 -45z m604 -32 c23 -21 25
-95 2 -117 -38 -39 -94 -3 -94 59 0 63 51 95 92 58z m0 -400 c20 -18 25 -82 8
-114 -15 -27 -64 -25 -84 3 -22 31 -20 84 4 108 24 24 47 25 72 3z m-4 -399
c30 -21 31 -95 2 -124 -26 -26 -36 -25 -65 5 -32 31 -34 86 -5 115 24 24 38
25 68 4z"/>
<path d="M4355 4216 c-90 -42 -85 -6 -85 -640 l0 -556 130 0 130 0 0 372 c0
233 4 368 9 362 10 -9 171 -274 171 -280 0 -1 27 -46 60 -99 33 -53 60 -98 60
-100 0 -2 23 -41 51 -87 82 -133 123 -168 199 -168 51 0 103 21 135 56 l25 27
0 568 0 569 -125 0 -125 0 0 -370 c0 -224 -4 -370 -9 -370 -6 0 -56 78 -112
173 -309 520 -305 514 -371 548 -49 25 -82 24 -143 -5z"/>
<path d="M5576 4225 c-22 -8 -53 -28 -70 -45 l-31 -30 -3 -508 c-3 -577 -5
-556 77 -599 44 -23 47 -23 413 -23 l368 0 0 85 0 85 -297 2 -298 3 -3 173 -2
172 190 0 190 0 0 90 0 90 -190 0 -190 0 0 170 0 170 300 0 300 0 0 90 0 90
-357 0 c-280 -1 -367 -4 -397 -15z"/>
<path d="M6666 4225 c-22 -8 -53 -28 -70 -45 l-31 -30 -3 -508 c-3 -577 -5
-556 77 -599 44 -23 47 -23 413 -23 l368 0 0 85 0 85 -297 2 -298 3 -3 173 -2
172 190 0 190 0 0 90 0 90 -190 0 -190 0 0 170 0 170 300 0 300 0 0 90 0 90
-357 0 c-280 -1 -367 -4 -397 -15z"/>
<path d="M7660 3670 l0 -571 25 -25 c53 -52 66 -54 460 -54 l365 0 0 85 0 85
-297 2 -298 3 -3 523 -2 522 -125 0 -125 0 0 -570z"/>
<path d="M8690 3625 l0 -615 130 0 130 0 0 615 0 615 -130 0 -130 0 0 -615z"/>
<path d="M9195 3980 c-203 -294 -215 -313 -215 -355 0 -27 121 -214 370 -572
l30 -43 135 0 c92 0 135 4 135 11 0 9 -157 242 -391 580 l-18 26 136 199 c74
110 169 247 210 307 l74 107 -143 0 -144 0 -179 -260z"/>
<path d="M10214 4221 c-69 -32 -65 -23 -249 -476 -58 -143 -149 -364 -201
-491 -51 -127 -94 -234 -94 -238 0 -3 61 -5 136 -4 l136 3 57 137 56 138 250
0 251 0 55 -137 56 -138 123 -3 c68 -1 130 0 136 2 9 4 -14 71 -78 228 -49
123 -153 378 -229 567 -76 190 -149 356 -161 369 -55 59 -165 79 -244 43z
m181 -536 c42 -104 79 -196 82 -202 4 -10 -33 -13 -166 -13 -125 0 -171 3
-171 12 0 6 32 91 71 187 39 97 76 187 81 200 5 14 12 20 17 15 5 -5 44 -94
86 -199z"/>
<path d="M11078 4220 c-20 -11 -46 -32 -57 -46 -21 -26 -21 -34 -21 -595 l0
-569 130 0 130 0 0 370 c0 204 3 370 8 370 4 0 93 -145 197 -321 105 -177 207
-339 229 -360 76 -77 189 -72 260 11 l26 32 0 564 0 564 -135 0 -135 0 -2
-367 -3 -367 -184 309 c-102 171 -198 327 -214 348 -57 73 -152 97 -229 57z"/>
<path d="M12110 4150 l0 -90 180 0 180 0 0 -525 0 -525 130 0 130 0 2 523 3
522 178 3 177 2 0 90 0 90 -490 0 -490 0 0 -90z"/>
<path d="M13230 3625 l0 -615 130 0 130 0 2 263 3 262 220 0 220 0 3 -262 2
-263 130 0 130 0 0 615 0 615 -130 0 -130 0 0 -260 0 -260 -225 0 -225 0 0
260 0 260 -130 0 -130 0 0 -615z"/>
<path d="M4035 2706 c-19 -29 -130 -121 -239 -199 l-79 -57 5242 0 5241 0 0
140 0 140 -5075 0 -5075 0 -15 -24z"/>
<path d="M13863 2269 c-63 -19 -103 -96 -89 -177 8 -55 35 -83 111 -122 83
-42 104 -76 67 -112 -31 -31 -73 -16 -88 32 -7 19 -17 35 -23 34 -6 -1 -27 -2
-46 -2 -31 -2 -35 -5 -35 -29 1 -45 36 -111 72 -133 44 -26 122 -27 165 0 48
29 67 73 68 157 0 101 -17 122 -150 181 -34 14 -40 22 -40 47 0 25 4 30 28 33
22 3 31 -3 45 -27 15 -28 22 -31 65 -31 38 0 47 3 47 18 -1 30 -37 100 -62
116 -30 20 -95 27 -135 15z"/>
<path d="M4140 2011 l0 -261 50 0 50 0 0 105 c0 86 3 105 15 105 20 0 38 -32
71 -127 l29 -83 58 0 c31 0 57 4 57 9 0 26 -64 181 -80 196 -19 17 -19 18 9
44 60 56 66 173 11 234 l-28 32 -121 4 -121 3 0 -261z m192 135 c12 -17 9 -61
-4 -74 -7 -7 -29 -12 -50 -12 l-38 0 0 48 c0 27 2 51 5 53 8 9 80 -3 87 -15z"/>
<path d="M5032 2073 c3 -177 6 -203 25 -245 27 -58 60 -80 131 -86 77 -7 114
15 149 86 26 53 26 59 27 246 l1 191 -52 3 -53 3 0 -176 c0 -205 -8 -234 -67
-235 -46 0 -53 30 -53 227 l0 183 -56 0 -56 0 4 -197z"/>
<path d="M5957 2263 c-4 -3 -7 -120 -7 -260 l0 -253 113 1 c61 1 123 4 137 8
42 12 70 65 70 133 0 63 -11 95 -42 116 -17 13 -17 14 3 41 45 62 33 167 -25
202 -25 15 -50 19 -137 19 -58 0 -109 -3 -112 -7z m191 -141 c4 -43 -12 -62
-54 -62 l-34 0 0 51 0 50 43 -3 c40 -3 42 -5 45 -36z m0 -168 c24 -16 28 -44
12 -75 -8 -14 -21 -19 -55 -19 l-45 0 0 48 c0 27 3 52 7 55 12 12 58 7 81 -9z"/>
<path d="M6860 2009 l0 -261 124 3 c116 4 126 6 150 28 55 51 58 168 7 218
l-27 27 23 35 c41 61 21 169 -37 198 -15 8 -67 13 -132 13 l-108 0 0 -261z
m188 139 c34 -34 -1 -91 -52 -86 -29 3 -31 5 -34 51 l-3 47 38 0 c22 0 44 -5
51 -12z m6 -194 c19 -18 21 -65 4 -82 -7 -7 -31 -12 -55 -12 l-43 0 0 48 c0
27 3 52 7 55 12 13 72 7 87 -9z"/>
<path d="M7767 2263 c-4 -3 -7 -120 -7 -260 l0 -253 150 0 150 0 0 55 0 55
-95 0 -95 0 0 55 0 55 85 0 85 0 0 50 0 50 -85 0 -85 0 0 45 0 45 90 0 90 0 0
55 0 55 -138 0 c-76 0 -142 -3 -145 -7z"/>
<path d="M8640 2010 l0 -260 55 0 55 0 0 105 c0 58 4 105 9 105 20 0 39 -32
70 -119 l33 -91 59 0 c32 0 59 2 59 4 0 16 -72 192 -84 205 -15 16 -14 19 5
37 49 45 65 137 34 210 -21 50 -61 64 -190 64 l-105 0 0 -260z m202 125 c8
-19 8 -31 0 -50 -10 -21 -19 -25 -52 -25 l-40 0 0 50 0 50 40 0 c33 0 42 -4
52 -25z"/>
<path d="M10290 2010 l0 -260 45 0 45 0 1 178 c1 97 4 168 7 157 2 -11 17 -90
31 -175 l27 -155 40 -3 39 -3 31 178 32 178 1 -177 1 -178 45 0 45 0 0 260 0
260 -69 0 -68 0 -23 -132 c-24 -147 -31 -180 -35 -176 -2 2 -10 48 -19 103 -9
55 -21 124 -27 153 l-10 52 -70 0 -69 0 0 -260z"/>
<path d="M11300 2010 l0 -260 50 0 50 0 0 260 0 260 -50 0 -50 0 0 -260z"/>
<path d="M12040 2010 l0 -260 140 0 140 0 0 60 0 59 -82 3 -83 3 -3 198 -2
197 -55 0 -55 0 0 -260z"/>
<path d="M12910 2011 l0 -261 135 0 135 0 0 60 0 60 -80 0 -80 0 -2 198 -3
197 -52 3 -53 3 0 -260z"/>
<path d="M6295 1478 c-5 -18 -65 -372 -65 -387 0 -7 9 -11 22 -9 18 2 24 12
30 48 4 24 16 53 27 63 18 19 19 18 56 -47 29 -53 42 -66 61 -66 13 0 24 2 24
4 0 2 -18 36 -40 76 -22 40 -40 75 -40 79 0 3 28 34 62 68 l62 63 -30 0 c-19
0 -38 -8 -50 -21 -10 -12 -40 -39 -65 -60 l-46 -39 18 98 c24 129 24 142 -1
142 -11 0 -22 -6 -25 -12z"/>
<path d="M10375 1468 c-7 -31 -65 -371 -65 -380 0 -5 10 -8 23 -8 22 0 24 8
55 193 18 105 32 198 32 205 0 22 -39 13 -45 -10z"/>
<path d="M11137 1479 c-21 -12 -47 -61 -47 -88 0 -13 -8 -21 -22 -23 -30 -4
-37 -38 -9 -38 12 0 21 -1 21 -3 0 -2 -9 -52 -20 -112 -25 -135 -25 -135 3
-135 22 0 24 7 41 111 22 139 22 139 57 139 22 0 29 5 29 20 0 15 -7 20 -25
20 -53 0 -21 74 35 82 14 2 26 11 28 21 3 14 -4 17 -35 17 -21 0 -46 -5 -56
-11z"/>
<path d="M12051 1438 c-13 -67 -61 -343 -61 -351 0 -4 11 -7 23 -7 22 0 25 6
41 103 14 85 21 106 42 125 29 26 66 29 85 6 10 -13 11 -31 0 -102 -6 -48 -15
-97 -18 -109 -4 -19 -1 -23 20 -23 24 0 25 4 43 115 18 114 18 115 -3 143 -25
33 -69 40 -114 17 -32 -17 -32 -17 -25 7 3 12 9 47 12 76 6 48 5 52 -14 52
-17 0 -22 -9 -31 -52z"/>
<path d="M13720 1488 c0 -6 -60 -355 -66 -380 -5 -25 -3 -28 19 -28 23 0 26 5
37 73 7 39 22 129 35 199 12 70 20 130 17 133 -5 5 -42 7 -42 3z"/>
<path d="M14009 1416 l-13 -75 -27 15 c-64 32 -126 5 -160 -70 -33 -73 -18
-183 26 -200 31 -12 88 -6 107 11 17 15 18 15 18 0 0 -10 8 -17 20 -17 11 0
20 2 20 5 0 7 58 341 66 378 5 24 3 27 -20 27 -23 0 -26 -5 -37 -74z m-40
-105 c16 -16 17 -25 8 -82 -12 -76 -36 -109 -82 -109 -17 0 -36 5 -43 12 -17
17 -15 113 3 148 26 51 79 66 114 31z"/>
<path d="M6567 1464 c-12 -12 -8 -42 6 -47 21 -8 39 8 35 29 -3 19 -29 30 -41
18z"/>
<path d="M7478 1450 c-50 -27 -87 -93 -101 -179 -18 -120 26 -193 116 -193 73
0 123 33 146 95 10 25 9 27 -14 27 -15 0 -26 -7 -30 -20 -18 -56 -113 -81
-151 -39 -15 17 -19 36 -18 88 1 86 17 133 60 171 55 48 113 38 134 -25 9 -27
17 -35 36 -35 21 0 24 3 18 28 -20 90 -109 127 -196 82z"/>
<path d="M5550 1458 c-1 -2 -16 -88 -34 -191 l-33 -188 26 3 c27 3 26 -3 66
253 l8 50 14 -60 c7 -33 23 -102 34 -152 29 -131 37 -128 140 52 46 79 84 143
86 141 2 -1 -6 -45 -16 -97 -11 -52 -23 -115 -26 -141 -7 -46 -6 -48 17 -48
23 0 25 5 52 163 15 89 30 174 33 190 5 25 3 27 -29 27 -34 0 -36 -2 -118
-149 -47 -83 -87 -148 -90 -145 -3 3 -18 69 -35 147 l-30 142 -32 3 c-18 2
-33 2 -33 0z"/>
<path d="M9736 1298 c-15 -90 -30 -175 -33 -190 l-5 -28 81 0 c93 0 137 15
169 55 28 36 29 98 2 125 -19 19 -19 19 10 49 39 38 41 91 5 126 -22 23 -32
25 -113 25 l-88 0 -28 -162z m192 110 c7 -7 12 -24 12 -39 0 -41 -41 -69 -102
-69 l-50 0 7 53 c4 28 9 55 12 60 7 12 108 8 121 -5z m-27 -158 c25 -14 25
-70 0 -101 -14 -18 -31 -23 -81 -27 l-63 -5 8 58 c4 32 9 64 12 72 6 16 95 18
124 3z"/>
<path d="M12740 1439 c0 -39 21 -314 26 -337 3 -17 10 -22 26 -20 17 2 35 33
87 152 l66 149 17 -139 c9 -77 17 -145 17 -151 1 -7 11 -13 24 -13 20 0 30 19
90 173 36 94 69 180 73 190 5 13 1 17 -18 17 -23 0 -29 -13 -79 -145 -61 -164
-58 -166 -79 31 -12 108 -14 114 -35 114 -20 0 -31 -20 -86 -147 l-64 -148 -9
148 c-9 145 -9 147 -32 147 -18 0 -24 -6 -24 -21z"/>
<path d="M10517 1433 c-2 -4 -7 -20 -11 -35 -5 -21 -12 -28 -30 -28 -15 0 -26
-7 -29 -20 -4 -16 0 -20 19 -20 28 0 28 0 8 -113 -14 -81 -14 -91 1 -113 24
-37 85 -30 85 11 0 2 -10 5 -22 7 -27 4 -28 21 -8 135 11 67 14 72 38 75 37 4
43 38 7 38 -24 0 -26 3 -23 32 2 24 -1 33 -14 36 -9 2 -18 -1 -21 -5z"/>
<path d="M11897 1433 c-2 -4 -7 -20 -11 -35 -5 -21 -12 -28 -30 -28 -15 0 -26
-7 -29 -20 -4 -16 0 -20 19 -20 28 0 28 0 8 -113 -14 -81 -14 -91 1 -113 24
-37 85 -30 85 11 0 2 -10 5 -22 7 -27 4 -28 21 -8 135 11 67 14 72 38 75 37 4
43 38 7 38 -24 0 -26 3 -23 32 2 24 -1 33 -14 36 -9 2 -18 -1 -21 -5z"/>
<path d="M6034 1360 c-12 -4 -31 -21 -44 -37 l-22 -28 22 -3 c12 -2 32 6 44
17 25 23 65 28 84 9 7 -7 12 -25 12 -40 0 -27 -2 -28 -54 -28 -99 0 -165 -76
-119 -138 25 -33 91 -42 129 -17 21 14 24 14 24 0 0 -9 9 -15 24 -15 21 0 24
5 29 63 3 34 9 87 13 119 6 52 5 58 -19 82 -27 27 -79 34 -123 16z m86 -169
c0 -58 -95 -95 -124 -48 -21 34 29 77 92 77 29 0 32 -3 32 -29z"/>
<path d="M6550 1367 c0 -2 -11 -66 -25 -143 -14 -76 -25 -140 -25 -141 0 -2
11 -3 24 -3 22 0 25 6 36 73 7 39 18 102 24 139 7 37 11 70 8 73 -6 5 -42 7
-42 2z"/>
<path d="M6675 1358 c-5 -16 -45 -251 -45 -267 0 -7 10 -11 22 -9 20 3 24 14
40 103 19 108 43 145 93 145 42 0 49 -30 31 -135 -20 -117 -20 -115 7 -115 22
0 24 7 40 108 19 117 15 152 -22 171 -28 16 -73 13 -99 -5 -20 -14 -22 -14
-22 0 0 19 -39 22 -45 4z"/>
<path d="M6985 1337 c-59 -59 -72 -182 -24 -233 17 -18 33 -24 65 -24 24 0 46
5 49 10 12 19 26 10 20 -12 -19 -62 -94 -90 -137 -51 -17 15 -20 15 -35 1 -15
-15 -13 -18 18 -37 63 -39 147 -21 182 39 12 20 67 294 67 334 0 13 -41 5 -46
-9 -5 -13 -8 -13 -27 0 -12 8 -39 15 -60 15 -31 0 -46 -7 -72 -33z m129 -26
c15 -17 16 -27 6 -87 -13 -79 -34 -104 -86 -104 -23 0 -37 6 -44 19 -13 24
-13 92 -1 124 23 61 90 86 125 48z"/>
<path d="M7780 1348 c-95 -65 -94 -241 2 -266 69 -18 127 12 159 83 62 135
-48 260 -161 183z m114 -40 c37 -52 7 -167 -49 -188 -63 -24 -106 38 -84 124
19 78 98 115 133 64z"/>
<path d="M8045 1358 c-3 -7 -16 -73 -29 -145 l-23 -133 23 0 c26 0 29 6 46
120 10 67 17 90 37 107 28 27 63 30 85 7 19 -19 19 -16 -3 -136 l-17 -98 23 0
c24 0 25 2 43 104 16 94 13 143 -10 166 -24 24 -78 26 -106 5 -23 -18 -35 -19
-31 -3 3 17 -32 22 -38 6z"/>
<path d="M8310 1358 c0 -7 12 -73 26 -145 36 -178 41 -178 134 7 38 77 70 142
70 145 0 3 -11 5 -23 5 -20 0 -31 -15 -72 -105 -26 -58 -51 -103 -54 -99 -3 3
-13 49 -21 102 -14 88 -17 97 -37 100 -14 2 -23 -2 -23 -10z"/>
<path d="M8632 1350 c-82 -50 -97 -220 -23 -260 37 -19 107 -12 138 14 40 35
20 53 -31 27 -50 -26 -92 -13 -104 32 -5 18 -7 35 -5 40 2 4 44 7 93 7 99 0
107 6 95 72 -15 81 -90 112 -163 68z m100 -37 c10 -9 18 -27 18 -40 0 -22 -3
-23 -70 -23 l-71 0 16 30 c26 50 72 64 107 33z"/>
<path d="M8850 1363 c0 -5 10 -68 22 -141 22 -133 22 -134 3 -170 -14 -26 -28
-38 -46 -40 -16 -2 -29 -11 -32 -22 -7 -28 27 -35 65 -13 25 14 51 56 125 198
51 99 93 183 93 188 0 4 -11 7 -24 7 -20 0 -31 -15 -71 -100 -27 -55 -51 -100
-55 -100 -3 0 -12 41 -19 92 -6 50 -14 95 -17 100 -6 10 -44 11 -44 1z"/>
<path d="M9162 1350 c-61 -37 -89 -140 -58 -215 18 -42 42 -55 100 -55 81 0
136 69 136 171 0 45 -4 55 -34 85 -41 41 -92 46 -144 14z m113 -40 c13 -15 19
-35 18 -71 -1 -57 -23 -96 -68 -118 -24 -12 -30 -11 -54 6 -47 35 -39 152 13
188 29 21 70 18 91 -5z"/>
<path d="M9425 1348 c-7 -35 -45 -251 -45 -260 0 -4 11 -8 23 -8 22 0 25 6 41
102 18 112 32 135 80 140 23 2 32 8 34 26 3 17 -1 22 -20 22 -13 0 -34 -7 -46
-16 -20 -14 -22 -14 -22 0 0 25 -39 19 -45 -6z"/>
<path d="M10125 1360 c-27 -11 -61 -49 -74 -83 -19 -49 -14 -131 10 -161 37
-48 128 -51 173 -7 28 29 8 51 -25 27 -28 -19 -92 -21 -108 -3 -6 8 -14 28
-17 45 l-6 32 96 0 96 0 0 51 c0 43 -5 55 -29 80 -30 30 -73 37 -116 19z m89
-52 c33 -47 23 -58 -54 -58 -38 0 -70 4 -70 9 0 5 12 23 26 40 32 38 75 42 98
9z"/>
<path d="M10683 1350 c-68 -41 -54 -107 29 -138 60 -22 79 -43 62 -69 -23 -38
-101 -33 -111 7 -3 13 -14 20 -29 20 -30 0 -31 -19 -3 -54 69 -87 240 -12 189
84 -6 11 -37 29 -70 41 -50 18 -60 25 -60 46 0 46 95 58 107 13 3 -13 14 -20
29 -20 33 0 31 25 -5 61 -36 35 -90 39 -138 9z"/>
<path d="M11290 1353 c-117 -80 -98 -273 27 -275 56 -1 99 25 124 73 39 78 24
176 -32 204 -37 20 -89 19 -119 -2z m109 -49 c60 -77 -29 -229 -105 -179 -13
8 -27 27 -30 41 -27 108 76 213 135 138z"/>
<path d="M11550 1365 c0 -8 -39 -234 -45 -262 -5 -19 -1 -23 19 -23 23 0 25 6
42 102 20 112 35 138 84 138 25 0 30 4 30 25 0 19 -5 25 -23 25 -12 0 -33 -7
-45 -16 -20 -14 -22 -14 -22 0 0 9 -9 16 -20 16 -11 0 -20 -2 -20 -5z"/>
<path d="M12385 1360 c-27 -11 -61 -49 -74 -83 -19 -49 -14 -131 10 -161 37
-48 128 -51 173 -7 28 29 8 51 -25 27 -28 -19 -92 -21 -108 -3 -6 8 -14 28
-17 45 l-6 32 96 0 96 0 0 51 c0 43 -5 55 -29 80 -30 30 -73 37 -116 19z m89
-52 c33 -47 23 -58 -54 -58 -38 0 -70 4 -70 9 0 5 12 23 26 40 32 38 75 42 98
9z"/>
<path d="M13250 1348 c-95 -65 -94 -241 2 -266 69 -18 127 12 159 83 62 135
-48 260 -161 183z m114 -40 c37 -52 7 -167 -49 -188 -63 -24 -106 38 -84 124
19 78 98 115 133 64z"/>
<path d="M13515 1358 c-5 -16 -45 -251 -45 -267 0 -7 10 -11 22 -9 20 3 24 14
40 102 19 108 34 133 82 138 23 2 32 8 34 26 3 18 -1 22 -24 22 -15 0 -36 -7
-46 -17 -17 -15 -18 -15 -18 0 0 20 -38 23 -45 5z"/>
<path d="M14084 1115 c-4 -9 -2 -21 4 -27 16 -16 47 -5 47 17 0 26 -42 34 -51
10z"/>
</g>
</svg>
